<svg xmlns="http://www.w3.org/2000/svg" width="682.856" height="551.165" viewBox="0 0 682.856 551.165">
  <g id="collaboration" transform="translate(-0.002 -0.661)">
    <path id="Path_1" data-name="Path 1" d="M712.811,402.151c-14.413,8.644-40.092,19.475-66.332,8.344l-16.963-7.2,33.992-38.1a162.342,162.342,0,1,1,49.3,36.956ZM647.682,255.876a134.908,134.908,0,0,0,42.953,99.257l9.376,8.811-21.39,23.977c11.142-2.261,20.846-8.288,25.766-11.789l6.752-4.8,7.261,3.99a136.3,136.3,0,0,0,65.472,16.747c75.1,0,136.19-61.095,136.19-136.19s-61.095-136.19-136.19-136.19-136.191,61.1-136.191,136.191Z" transform="translate(-263.255 -93.127)" fill="#3f3d56"/>
    <path id="Path_2" data-name="Path 2" d="M638.315,259.605a149.337,149.337,0,1,1,77.564,131.016c-10.327,7.348-35.52,22-60.408,11.446l29.958-33.583a148.97,148.97,0,0,1-47.115-108.88Z" transform="translate(-267.092 -96.856)" fill="#fff133"/>
    <path id="Path_3" data-name="Path 3" d="M951.945,260.023a149.4,149.4,0,0,0-136.19-148.807c4.352-.381,8.754-.587,13.2-.587a149.395,149.395,0,0,1,0,298.79c-4.444,0-8.838-.209-13.183-.589A149.4,149.4,0,0,0,951.945,260.023Z" transform="translate(-307.383 -96.951)" opacity="0.1"/>
    <path id="Path_4" data-name="Path 4" d="M338.352,665.611a162.772,162.772,0,1,1,120.365-53.28l33.992,38.1-16.963,7.2c-26.241,11.131-51.92.3-66.332-8.344a162.977,162.977,0,0,1-71.062,16.324Zm0-298.789c-75.1,0-136.19,61.095-136.19,136.19S263.257,639.2,338.352,639.2a136.314,136.314,0,0,0,65.484-16.753l7.25-3.983,6.752,4.8c4.921,3.5,14.625,9.528,25.766,11.789l-21.39-23.977,9.376-8.811a134.908,134.908,0,0,0,42.953-99.258C474.543,427.917,413.448,366.822,338.352,366.822Z" transform="translate(-161.998 -149.047)" fill="#3f3d56"/>
    <path id="Path_5" data-name="Path 5" d="M491.7,507A149.335,149.335,0,1,0,414.14,638.013c10.327,7.348,35.52,22,60.408,11.446l-29.958-33.582A148.971,148.971,0,0,0,491.7,507Z" transform="translate(-165.955 -153.031)" fill="#fff133"/>
    <path id="Path_6" data-name="Path 6" d="M219.323,506.02a149.4,149.4,0,0,1,136.19-148.807c-4.352-.381-8.754-.587-13.2-.587a149.394,149.394,0,1,0,0,298.789c4.444,0,8.838-.209,13.183-.589A149.4,149.4,0,0,1,219.323,506.02Z" transform="translate(-165.955 -152.81)" opacity="0.1"/>
    <path id="Path_7" data-name="Path 7" d="M854.815,236.992c-9.775-16.516-29.113-17.286-29.113-17.286s-18.844-2.41-30.932,22.744c-11.267,23.446-26.818,46.083-2.5,51.572l4.392-13.669,2.72,14.687a95.147,95.147,0,0,0,10.4.178c26.039-.841,50.836.246,50.038-9.1C858.757,273.7,864.22,252.883,854.815,236.992Z" transform="translate(-299.125 -121.705)" fill="#2f2e41"/>
    <path id="Path_8" data-name="Path 8" d="M793.092,426.67a38.564,38.564,0,0,1-1.247,5.368c-.612,1.72-1.556,3.311-2.115,5.048-1.783,5.539.689,11.715,4.636,15.99a26.093,26.093,0,0,0,12.722,7.554,51.9,51.9,0,0,0,10.933,1.149c10.161.345,20.584.653,30.212-2.613a52.5,52.5,0,0,0,8.778-3.988,6.572,6.572,0,0,0,2.278-1.793,6.268,6.268,0,0,0,.822-3.679c-.022-4.308-.895-8.593-.687-12.9a51.122,51.122,0,0,0,.341-7.141A13.173,13.173,0,0,0,849.7,418.323a27.344,27.344,0,0,0-8.345,0,212.749,212.749,0,0,1-21.718.971c-7.409-.047-14.772-1.178-22.144-1.3-2.18-.035-2.136.637-2.83,2.747A51.387,51.387,0,0,0,793.092,426.67Z" transform="translate(-301.34 -166.744)" fill="#2f2e41"/>
    <path id="Path_9" data-name="Path 9" d="M818.855,289a12.933,12.933,0,0,1-1.861,5.329c-1.289,1.763-3.391,2.77-4.777,4.457-2.087,2.539-2.207,6.112-2.216,9.4-.008,3.028.054,6.258,1.742,8.771a15.33,15.33,0,0,0,4.393,3.873c6.332,4.267,13.175,8.612,20.81,8.752,3.163.058,6.555-.759,8.637-3.141a12.968,12.968,0,0,0,2.091-3.731,49.539,49.539,0,0,0,3.507-15.081,17.71,17.71,0,0,0-.668-7.245c-.927-2.586-2.8-4.714-4.042-7.166a15.951,15.951,0,0,1-1.535-9.439,1.02,1.02,0,0,0-.054-.684,1,1,0,0,0-.821-.333l-15.139-1.09a32.948,32.948,0,0,1-4.2-.481c-.816-.166-2.972-1.325-3.75-1.017C819.528,280.741,819.15,287.451,818.855,289Z" transform="translate(-306.076 -135.437)" fill="#a0616a"/>
    <path id="Path_10" data-name="Path 10" d="M818.855,289.609a12.933,12.933,0,0,1-1.861,5.329c-1.289,1.763-3.391,2.77-4.777,4.457-2.087,2.539-2.207,6.112-2.216,9.4-.008,3.028.054,6.258,1.742,8.771a15.33,15.33,0,0,0,4.393,3.873c6.332,4.267,13.175,8.612,20.81,8.752,3.163.058,6.555-.759,8.637-3.141a12.967,12.967,0,0,0,2.091-3.731,49.54,49.54,0,0,0,3.507-15.081,17.708,17.708,0,0,0-.668-7.245c-.928-2.586-2.8-4.714-4.042-7.166a15.951,15.951,0,0,1-1.535-9.44,1.02,1.02,0,0,0-.054-.684,1,1,0,0,0-.821-.333l-15.139-1.09a32.945,32.945,0,0,1-4.2-.481c-.816-.166-2.972-1.325-3.75-1.017C819.528,281.352,819.15,288.063,818.855,289.609Z" transform="translate(-306.076 -135.576)" opacity="0.1"/>
    <circle id="Ellipse_1" data-name="Ellipse 1" cx="22.21" cy="22.21" r="22.21" transform="translate(505.046 111.17)" fill="#a0616a"/>
    <path id="Path_11" data-name="Path 11" d="M823.128,325.5a13.623,13.623,0,0,0,3.9,3.117,12.259,12.259,0,0,0,4.874.928c4,.113,8.344-.621,11.129-3.5,3.59-3.71,3.472-9.695,6.286-14.023a3.125,3.125,0,0,1,.907-.992,2.939,2.939,0,0,1,1.542-.355c3.554-.033,6.65,2.272,9.444,4.469a12.44,12.44,0,0,1,3.324,3.386,11.478,11.478,0,0,1,1.121,3.433,150.812,150.812,0,0,1,2.281,20.584c.246,3.808.492,7.62.474,11.436-.06,12.573-2.983,24.935-5.889,37.167-.374,1.576-.887,3.338-2.32,4.093a5.722,5.722,0,0,1-2.024.494,247.763,247.763,0,0,1-25.044,2.085q-4.905.076-9.806-.237a5.284,5.284,0,0,1-1.652-.288,4.659,4.659,0,0,1-1.8-1.529c-4.533-5.712-4.8-13.608-4.771-20.9q.106-26.741,1.911-53.439c.1-1.469.121-3.253-.938-4.409a55.187,55.187,0,0,0,7.05,8.479Z" transform="translate(-307.235 -142.375)" fill="#fff"/>
    <path id="Path_12" data-name="Path 12" d="M809.328,296.094c-.75,1.358-6.281,4.73-7.348,5.855-5.965,6.288-16.853,6.052-22.309,12.787a20.986,20.986,0,0,0-3.65,8.307c-1.037,4.186-1.591,8.752.146,12.7,1.672,3.8,5.192,6.424,7.582,9.817,2.624,3.725,3.8,8.248,4.935,12.663.835,3.259,1.677,6.6,1.351,9.948-.37,3.807-2.212,7.294-3.3,10.961s-1.276,8.035,1.24,10.917c1.848,2.117,4.746,2.957,7.517,3.429a86.367,86.367,0,0,0,10.714.933c3.167.14,6.658.167,9.092-1.863a9.142,9.142,0,0,0,2.864-6.7,43.241,43.241,0,0,0-.738-7.456c-.338-2.571-.467-5.164-.576-7.755q-.731-17.436-.2-34.9a29.7,29.7,0,0,0-.353-7.241c-.679-3.114-2.362-5.9-3.766-8.757a33.137,33.137,0,0,1-3.674-17.505C809.281,296.008,812,291.262,809.328,296.094Z" transform="translate(-298.14 -138.614)" fill="#fff"/>
    <path id="Path_13" data-name="Path 13" d="M857.5,295.93c1.143,1.174,5.025,1.561,6.479,2.318a22.7,22.7,0,0,0,4.259,1.475,55.288,55.288,0,0,1,14.961,6.867,9.081,9.081,0,0,1,2.5,2.161,9.9,9.9,0,0,1,1.384,3.908,44.354,44.354,0,0,1,1.267,10.686,44.361,44.361,0,0,1-2.458,11.151l-4.258,13.614c-3.179,10.162-6.377,20.424-7.272,31.034a73,73,0,0,0,.655,17.626,2.089,2.089,0,0,1-.215,1.707,1.681,1.681,0,0,1-1.043.48c-2.055.321-4.044-.727-5.906-1.654a65.405,65.405,0,0,0-18.03-5.9,41.919,41.919,0,0,0,5.6-11.545,69.88,69.88,0,0,0,1.692-7.94l1.981-11.457a112.569,112.569,0,0,0,1.7-12.67,15.862,15.862,0,0,0-.276-4.773,23.148,23.148,0,0,0-1.809-4.3,36.776,36.776,0,0,1-3.512-21.965c.562-3.249,1.655-6.5,1.2-9.769-.438-3.14.017-5.58-.788-8.688C852.3,285.534,855.346,293.721,857.5,295.93Z" transform="translate(-315.118 -137.977)" fill="#fff"/>
    <path id="Path_14" data-name="Path 14" d="M779.4,332.024c-1.488,3.089-3.977,5.72-4.823,9.042a19.755,19.755,0,0,0-.421,4.726,22.445,22.445,0,0,0,.7,7.106c.473,1.465,1.242,2.816,1.8,4.252a15.419,15.419,0,0,1,1.01,6.3c-.149,2.975-1.16,5.863-1.239,8.841-.124,4.683,2.042,9.085,4.155,13.265a9.752,9.752,0,0,1,14.175-4.641,2.907,2.907,0,0,0,.639-2.119q.234-8.149.452-16.3c.229-8.4.447-16.917-1.486-25.1a23.678,23.678,0,0,0-4.72-10.237c-1.311-1.508-5.76-5.482-7.912-3.792-.968.76-.741,2.829-.895,3.876A16.445,16.445,0,0,1,779.4,332.024Z" transform="translate(-297.928 -145.165)" fill="#fff"/>
    <path id="Path_15" data-name="Path 15" d="M892.631,320.85a22.731,22.731,0,0,1,.76,6.837q.043,7.045-.187,14.087a26.263,26.263,0,0,1-.915,7.132c-.481,1.511-1.222,2.929-1.719,4.435-1.488,4.514-.675,9.411-.547,14.162a16.093,16.093,0,0,1-.39,4.581c-.785,2.945-2.895,5.326-4.367,7.995-1.4,2.535-2.242,5.376-3.913,7.741s-4.562,4.238-7.364,3.512c-2.123-.55-3.632-2.43-4.676-4.359A21.381,21.381,0,0,1,867.1,373.1c1.048-5.767,4.435-10.883,5.657-16.615,1.678-7.872-.872-16-.8-24.044a11.619,11.619,0,0,1,.507-3.727,15.6,15.6,0,0,1,3.288-4.781,60.348,60.348,0,0,0,4.42-5.8c.91-1.357,2.146-4.849,3.76-5.139C887.541,312.35,891.737,318.067,892.631,320.85Z" transform="translate(-318.967 -142.892)" fill="#fff"/>
    <path id="Path_16" data-name="Path 16" d="M750.754,424.495a21.921,21.921,0,0,0-6.1-.648,15.22,15.22,0,0,0-14.13,17.942,25.563,25.563,0,0,0,2.417,6.6c1.617,3.282,3.557,6.557,6.551,8.66a25.515,25.515,0,0,0,5.781,2.752l15.769,5.94c2.32.874,4.64,1.748,6.982,2.558a136.578,136.578,0,0,0,36.471,7.25,39.49,39.49,0,0,0,11.324-.574,3.686,3.686,0,0,0,2.319-1.253,3.972,3.972,0,0,0,.518-1.711l.97-6.793a5.689,5.689,0,0,0-.082-2.864,5.485,5.485,0,0,0-2.621-2.47c-10.367-5.954-22.471-9.239-31.2-17.411-2.054-1.924-3.773-4.973-6.269-6.28-2.83-1.482-6.163-2.328-9.089-3.693C763.973,429.519,757.685,426.089,750.754,424.495Z" transform="translate(-287.973 -168.07)" fill="#2f2e41"/>
    <path id="Path_17" data-name="Path 17" d="M775.063,436.079c5.574,1.746,29.1,13.846,33.138,18.07-.541.195-18.884-10.085-19.434-10.25a110.829,110.829,0,0,1-14.785-5.211c-.956-.442-6.21-2.52-5.972-3.726C768.278,433.6,774.073,435.769,775.063,436.079Z" transform="translate(-296.54 -170.497)" opacity="0.1"/>
    <path id="Path_18" data-name="Path 18" d="M860.384,491.069a1.309,1.309,0,0,0,.884-.26,1.364,1.364,0,0,0,.276-1.017l-.026-9.254a28.446,28.446,0,0,0-8.56-2.065l-13.633-1.822c.313.042-2.132,5.872-1.757,6.65.661,1.372,5.71,2.587,7.135,3.235C849.657,488.788,854.8,491.263,860.384,491.069Z" transform="translate(-312.327 -180.064)" fill="#a0616a"/>
    <path id="Path_19" data-name="Path 19" d="M809.292,479.686c-2.574.41-5.447.772-7.114,2.776-2.114,2.541-1.214,6.329-.206,9.477a3.073,3.073,0,0,0,3.584,2.564c2.347.149,4.846.265,6.9-.886a30.233,30.233,0,0,0,2.679-1.991,17.177,17.177,0,0,1,4.926-2.252,49.812,49.812,0,0,1,9.887-2.038,15.377,15.377,0,0,0,3.9-.687,4.316,4.316,0,0,0,2.743-2.663c.475-1.682-.5-3.4-1.44-4.871A19.434,19.434,0,0,0,831,473.99c-2.54-1.973-3.8-.459-6.356.8a53.923,53.923,0,0,1-15.35,4.892Z" transform="translate(-304.008 -179.244)" fill="#a0616a"/>
    <path id="Path_20" data-name="Path 20" d="M793.92,482.871l-16.344-4.831a21.631,21.631,0,0,0-6.082-1.179,7.3,7.3,0,0,0-5.585,2.259c-1.267,1.487-1.63,3.52-1.946,5.449l-.676,4.125a20.714,20.714,0,0,0-.378,6.335,7,7,0,0,0,3.247,5.219c2.262,1.234,5.034.631,7.558.115A82.277,82.277,0,0,1,789.2,498.7c1.956-.023,4.008,0,5.737-.915a7.162,7.162,0,0,0,3.5-5.708C798.755,488.556,797.58,483.953,793.92,482.871Z" transform="translate(-295.362 -180.11)" fill="#2f2e41"/>
    <path id="Path_21" data-name="Path 21" d="M873.375,478.223c2.119-.371,3.989-1.575,6.019-2.286,2.858-1,5.954-1,8.982-.989a5.766,5.766,0,0,1,3.22.645c1.334.888,1.675,2.665,1.9,4.251l1.368,9.569a15.016,15.016,0,0,1,.112,5.421,5.1,5.1,0,0,1-3.37,3.94c-2.137.556-4.232-.81-6.25-1.706-5.044-2.241-10.906-1.669-16.165-3.344a3.623,3.623,0,0,1-2.419-1.73,3.934,3.934,0,0,1-.188-1.654c.09-3.076-.559-7.276.367-10.215C867.785,477.48,871.01,478.223,873.375,478.223Z" transform="translate(-318.894 -179.671)" fill="#2f2e41"/>
    <path id="Path_22" data-name="Path 22" d="M900.144,419.456a28.381,28.381,0,0,1,10-.683c2.673.294,5.427,1.038,7.378,2.888,2.375,2.252,3.138,5.734,3.2,9.006a28.138,28.138,0,0,1-6.116,17.97,16.3,16.3,0,0,1-3.5,3.366,23.018,23.018,0,0,1-4.549,2.192l-35.313,13.929c-9.29,3.664-18.613,7.339-28.3,9.755a2.206,2.206,0,0,1-2.968-1.076,73.163,73.163,0,0,1-7.74-14.158.954.954,0,0,1,.422-1.5l24.977-14.351a25.258,25.258,0,0,0,5.084-3.5,12.62,12.62,0,0,0,2.61-3.634c.518-1.081.566-3.633,1.227-4.433.647-.783,2.862-.845,3.885-1.153a35.259,35.259,0,0,0,4.23-1.6c5.587-2.5,10.563-6.131,15.919-9.058A40.845,40.845,0,0,1,900.144,419.456Z" transform="translate(-311.076 -166.883)" fill="#2f2e41"/>
    <path id="Path_23" data-name="Path 23" d="M890.06,432.769c-4.291,3.223-9.847,6.186-14.1,9.493-1.452,1.129-25.648,14.733-25.991,16.539,3.968.669,29.243-17.014,32.859-18.778a58.4,58.4,0,0,0,10-6.722c.81-.629,4.24-2.522,1.916-3.225C893.434,429.681,891.026,432.125,890.06,432.769Z" transform="translate(-315.152 -169.478)" opacity="0.1"/>
    <path id="Path_24" data-name="Path 24" d="M850.755,297.693H813.087a5.77,5.77,0,0,0-5.77,5.77v2.113h-.409V310.3h.409v3.308h-.409v2.835h.409v34.868a5.77,5.77,0,0,0,5.77,5.77h37.669a5.77,5.77,0,0,0,5.77-5.77v-47.85a5.77,5.77,0,0,0-5.77-5.77Z" transform="translate(-305.374 -139.428)" fill="#d0cde1"/>
    <path id="Path_25" data-name="Path 25" d="M698.38,143.961l-19.105-10.008-26.384,4.094-5.458,24.109,13.588-.523,3.8-8.857v8.712l6.27-.241,3.639-14.1L677,162.156l22.29-.455Z" transform="translate(-147.012 -30.267)" fill="#2f2e41"/>
    <path id="Path_26" data-name="Path 26" d="M786.309,397.6a9.927,9.927,0,0,0,3.566,3.548,6.974,6.974,0,0,0,6.13-.164,10.791,10.791,0,0,0,4.424-4.436c2.076-3.667,2.506-8.054,2.247-12.26s-1.157-8.347-1.555-12.542c-.289-3.049-.312-6.117-.336-9.18a3.053,3.053,0,0,1,.386-1.857,3.645,3.645,0,0,1,2.048-1.023c4.191-1.245,6.972-5.173,8.966-9.063,1.332-2.6,2.49-5.437,2.233-8.345s-2.347-5.837-5.251-6.134c-2.394-.245-4.6,1.276-6.332,2.952a27.15,27.15,0,0,0-7.95,15.888c-.379,2.957-.271,5.994-1.075,8.864-1.717,6.128-7.089,9.886-9.766,15.4C781.1,385.329,782.725,392.228,786.309,397.6Z" transform="translate(-299.836 -148.154)" fill="#a0616a"/>
    <path id="Path_27" data-name="Path 27" d="M882.359,368.823a11.582,11.582,0,0,1-6.5,6.241,8.97,8.97,0,0,1-5.646.346,6.261,6.261,0,0,1-4.136-3.7,9.968,9.968,0,0,1-.466-2.779c-.269-4.133-.165-8.391,1.336-12.251.579-1.489,1.36-2.9,1.817-4.431a22.224,22.224,0,0,0,.684-5.408l.494-11.276a7.338,7.338,0,0,0-.168-2.445c-.492-1.632-2.017-2.692-3.416-3.665-3.379-2.35-6.718-5.092-8.356-8.868a6.219,6.219,0,0,1-.577-3.673c.462-2.239,2.721-3.689,4.955-4.177a11.083,11.083,0,0,1,13.287,8.931c.221,1.273.218,2.572.347,3.858.274,2.726,1.14,5.354,1.681,8.039,1.333,6.616.643,13.454,1.961,20.069C880.765,359.163,884.922,362.771,882.359,368.823Z" transform="translate(-316.831 -142.785)" fill="#a0616a"/>
    <circle id="Ellipse_2" data-name="Ellipse 2" cx="4.726" cy="4.726" r="4.726" transform="translate(522.325 174.182)" fill="#6c63ff"/>
    <circle id="Ellipse_3" data-name="Ellipse 3" cx="13.94" cy="13.94" r="13.94" transform="translate(0.002 320.865)" fill="#2f2e41"/>
    <path id="Path_28" data-name="Path 28" d="M77.206,484.5l-7.021-6.825-14.1,4.379,1.354,16.325,28.99-1.346-8.906-12.1Z" transform="translate(-12.735 -108.316)" fill="#fbbebe"/>
    <circle id="Ellipse_4" data-name="Ellipse 4" cx="22.537" cy="22.537" r="22.537" transform="translate(26.578 330.975)" fill="#fbbebe"/>
    <path id="Path_29" data-name="Path 29" d="M398.938,617.061s27.687,47.581,34.276,54.724a119.611,119.611,0,0,0,10,9.964s-3.1,10.275-8.032,9.908a23.22,23.22,0,0,1-8.138-2.006s-2.2-5.708-6.043-8.211-35.221-33.375-34.488-43.242S398.938,617.061,398.938,617.061Z" transform="translate(-209.912 -211.946)" fill="#2f2e41"/>
    <path id="Path_30" data-name="Path 30" d="M275.023,695.934s29.521,22.913,69.64,1.383l3.457-2.544s-5.835,13.126-6.376,16.685c-.628,4.126-15.819,28.3-18.3,29.455s-3.025,2.226-3.025,2.226l10.52,11.579,3.89-2.862s15.166-21.488,19.6-25.419S380,681.969,380,681.969s8.08-15.274-12.086-16.423-29.446,4.348-29.446,4.348l-35.79,5.685Z" transform="translate(-184.599 -222.92)" fill="#2f2e41"/>
    <path id="Path_31" data-name="Path 31" d="M454.07,697.841,469,708.172s19.049,5.968,7.315,9.94-42.656,5.409-43.358-.071,1.22-14.1,2.762-13.633S447.971,707.66,454.07,697.841Z" transform="translate(-220.428 -230.289)" fill="#2f2e41"/>
    <path id="Path_32" data-name="Path 32" d="M346.736,770.522,349.5,785.7s7.858,15.029-1.577,10.366-28.875-22.376-26-26.09,9.206-7.741,9.85-6.531S337.173,772.756,346.736,770.522Z" transform="translate(-195.183 -245.136)" fill="#2f2e41"/>
    <path id="Path_33" data-name="Path 33" d="M291.118,659.749s-20.067,23.429-32.25,17.738-62.027-71.61-56.336-83.793,7.6-9.59,7.6-9.59l25.736,2.38-7.4-11.873a5.009,5.009,0,0,1,6.752,1.027c3.295,3.572,16.522,12.492,21.13,25.091s18.136,11.97,18.136,11.97Z" transform="translate(-168.036 -202.108)" fill="#fff"/>
    <path id="Path_34" data-name="Path 34" d="M244.711,513.558l-34.786,36.925-31.161-55.017,29.624-35.792Z" transform="translate(-40.591 -104.228)" fill="#3f3d56"/>
    <path id="Path_35" data-name="Path 35" d="M243.094,514.057l-31.418,32.448-28.47-50,26.11-32.872Z" transform="translate(-41.6 -105.126)" fill="#fff"/>
    <path id="Path_36" data-name="Path 36" d="M202.63,575.336l1.7,1.411-1.093,2.136L154.6,593.36l-.46-1.666,2.213-2.289Z" transform="translate(-35 -130.491)" fill="#b3b3b3"/>
    <path id="Path_37" data-name="Path 37" d="M195.821,560.681l-50.37,15.748-30.7-58.018,49.481-12.43Z" transform="translate(-26.055 -114.743)" fill="#d0cde1"/>
    <path id="Path_38" data-name="Path 38" d="M207.052,554.462l-2.161,1.59-23.984-41.644,2.479-1.158Z" transform="translate(-41.078 -116.393)" fill="#3f3d56"/>
    <path id="Path_39" data-name="Path 39" d="M194.952,557.424l-21.307,6.353-24.188-42.826,21.079-4.852Z" transform="translate(-33.937 -117.04)" fill="#3f3d56"/>
    <path id="Path_40" data-name="Path 40" d="M287.9,621.072l4.412-1.248s24.6-2.782,24.961,4.949-28.263,4.144-28.263,4.144l-3.817-5.186Z" transform="translate(-186.908 -212.463)" fill="#fbbebe"/>
    <path id="Path_41" data-name="Path 41" d="M315,661.28l6.14-2.52s18.535-8.31,13.218-13.725-21.715,3.988-21.715,3.988L309.5,652Z" transform="translate(-192.428 -217.917)" fill="#fbbebe"/>
    <path id="Path_42" data-name="Path 42" d="M285.473,642.543s10,9.964,7.723,12.3-39.581,33.126-48.828,23.275-54.3-59.306-36.772-63.547,22.164,5.675,22.164,5.675l23.144,39.6Z" transform="translate(-168.378 -211.143)" fill="#fff"/>
    <path id="Path_43" data-name="Path 43" d="M112.406,518.781l16.423,5.569-.268,11.857-17.369-1.874Z" transform="translate(-25.248 -117.649)" fill="#fff"/>
    <path id="Path_44" data-name="Path 44" d="M120.776,559.8l-17.695,10.357L82.865,539.06l19.515,25.613Z" transform="translate(-18.816 -122.254)" opacity="0.2"/>
    <circle id="Ellipse_5" data-name="Ellipse 5" cx="26.83" cy="26.83" r="26.83" transform="translate(12.393 320.148)" fill="#2f2e41"/>
    <path id="Path_45" data-name="Path 45" d="M232.781,521.448l-18.786-27.482,7.964-9.858,19.52,28.274Z" transform="translate(-48.591 -109.776)" fill="#6c63ff"/>
    <path id="Path_46" data-name="Path 46" d="M229.213,534l-28.6-41.578,1.411-1.7L230.49,532.39Z" transform="translate(-45.553 -111.276)" fill="#e6e6e6"/>
    <path id="Path_47" data-name="Path 47" d="M224.445,539.23l-28.6-41.578,1.411-1.7,28.466,41.677Z" transform="translate(-44.47 -112.464)" fill="#e6e6e6"/>
    <path id="Path_48" data-name="Path 48" d="M220.383,543.081l-28.6-41.578,1.411-1.7,28.466,41.677Z" transform="translate(-43.548 -113.339)" fill="#e6e6e6"/>
    <path id="Path_49" data-name="Path 49" d="M66.117,425.544h8.3a15.845,15.845,0,0,1,15.845,15.845H66.117Z" transform="translate(-15.013 -96.478)" fill="#2f2e41"/>
    <path id="Path_50" data-name="Path 50" d="M369.6,505.593l-1.5-.112c-.058.782-.1,1.569-.15,2.354l-6.754-.226,7.084,13.275,7.956-12.772-6.778-.227C369.5,507.121,369.54,506.355,369.6,505.593Z" transform="translate(-204.165 -186.61)" fill="#3f3d56"/>
    <path id="Path_51" data-name="Path 51" d="M423.317,363.555l1.2.916c1.8-2.357,3.679-4.709,5.586-6.993l-1.158-.967C427.022,358.812,425.13,361.182,423.317,363.555Z" transform="translate(-218.272 -152.784)" fill="#3f3d56"/>
    <path id="Path_52" data-name="Path 52" d="M438.272,345.812l1.114,1.018c2-2.192,4.081-4.37,6.177-6.472l-1.068-1.066C442.382,341.41,440.289,343.6,438.272,345.812Z" transform="translate(-221.668 -148.874)" fill="#3f3d56"/>
    <path id="Path_53" data-name="Path 53" d="M454.736,329.472l1.021,1.112c2.19-2.01,4.45-4,6.719-5.9l-.97-1.155C459.219,325.447,456.942,327.447,454.736,329.472Z" transform="translate(-225.407 -145.294)" fill="#3f3d56"/>
    <path id="Path_54" data-name="Path 54" d="M409.991,382.571l1.275.806c1.586-2.509,3.252-5.019,4.95-7.461l-1.239-.862C413.267,377.513,411.589,380.042,409.991,382.571Z" transform="translate(-215.246 -156.994)" fill="#3f3d56"/>
    <path id="Path_55" data-name="Path 55" d="M472.579,314.662l.919,1.2c2.358-1.81,4.783-3.589,7.21-5.287l-.865-1.236C477.4,311.046,474.954,312.838,472.579,314.662Z" transform="translate(-229.458 -142.071)" fill="#3f3d56"/>
    <path id="Path_56" data-name="Path 56" d="M398.406,402.713l1.342.69c1.359-2.644,2.8-5.293,4.273-7.873l-1.31-.749C401.223,397.379,399.776,400.048,398.406,402.713Z" transform="translate(-212.616 -161.473)" fill="#3f3d56"/>
    <path id="Path_57" data-name="Path 57" d="M378.542,459.886l-1.461-.376c-.746,2.9-1.436,5.848-2.052,8.776l1.477.311C377.117,465.691,377.8,462.76,378.542,459.886Z" transform="translate(-207.307 -176.172)" fill="#3f3d56"/>
    <path id="Path_58" data-name="Path 58" d="M491.665,301.5l.81,1.273c2.5-1.592,5.073-3.149,7.644-4.629l-.753-1.308C496.775,298.325,494.185,299.894,491.665,301.5Z" transform="translate(-233.792 -139.233)" fill="#3f3d56"/>
    <path id="Path_59" data-name="Path 59" d="M374,482.571l-1.489-.245c-.484,2.946-.91,5.948-1.265,8.922l1.5.178C373.1,488.476,373.518,485.5,374,482.571Z" transform="translate(-206.448 -181.352)" fill="#3f3d56"/>
    <path id="Path_60" data-name="Path 60" d="M388.661,423.831l1.4.568c1.119-2.754,2.316-5.521,3.557-8.225l-1.371-.63C390.994,418.269,389.788,421.057,388.661,423.831Z" transform="translate(-210.403 -166.188)" fill="#3f3d56"/>
    <path id="Path_61" data-name="Path 61" d="M380.841,445.766l1.443.441c.87-2.847,1.816-5.712,2.811-8.515l-1.422-.5C382.671,440.01,381.718,442.9,380.841,445.766Z" transform="translate(-208.627 -171.103)" fill="#3f3d56"/>
    <path id="Path_62" data-name="Path 62" d="M623.717,263.474c2.958-.1,5.971-.143,8.95-.115l.013-1.509c-3-.028-6.036.013-9.015.116Z" transform="translate(-263.765 -131.287)" fill="#3f3d56"/>
    <path id="Path_63" data-name="Path 63" d="M511.845,290.086l.694,1.34c2.635-1.365,5.333-2.688,8.019-3.932l-.634-1.369C517.218,287.377,514.5,288.71,511.845,290.086Z" transform="translate(-238.374 -136.801)" fill="#3f3d56"/>
    <path id="Path_64" data-name="Path 64" d="M669.93,265.949c2.944.417,5.914.9,8.83,1.45l.277-1.483c-2.937-.55-5.93-1.042-8.9-1.461Z" transform="translate(-274.271 -131.88)" fill="#3f3d56"/>
    <path id="Path_65" data-name="Path 65" d="M692.685,270.213c2.89.675,5.806,1.425,8.667,2.229l.408-1.453c-2.882-.81-5.82-1.565-8.732-2.246Z" transform="translate(-279.437 -132.854)" fill="#3f3d56"/>
    <path id="Path_66" data-name="Path 66" d="M714.969,276.489c2.818.93,5.655,1.936,8.433,2.992l.536-1.41c-2.8-1.064-5.657-2.078-8.5-3.015Z" transform="translate(-284.498 -134.288)" fill="#3f3d56"/>
    <path id="Path_67" data-name="Path 67" d="M646.886,263.716c2.972.156,5.974.38,8.925.665l.146-1.5c-2.973-.288-6-.513-8.992-.67Z" transform="translate(-269.038 -131.371)" fill="#3f3d56"/>
    <path id="Path_68" data-name="Path 68" d="M600.423,263.564l.184,1.5c2.941-.362,5.935-.664,8.9-.9l-.118-1.5C606.4,262.9,603.386,263.2,600.423,263.564Z" transform="translate(-258.488 -131.473)" fill="#3f3d56"/>
    <path id="Path_69" data-name="Path 69" d="M554.878,272.869l.447,1.441c2.836-.878,5.73-1.7,8.6-2.455l-.382-1.46C560.651,271.153,557.735,271.984,554.878,272.869Z" transform="translate(-248.146 -133.229)" fill="#3f3d56"/>
    <path id="Path_70" data-name="Path 70" d="M532.961,280.52l.573,1.4c2.744-1.126,5.546-2.2,8.33-3.2l-.51-1.42C538.549,278.3,535.725,279.386,532.961,280.52Z" transform="translate(-243.169 -134.795)" fill="#3f3d56"/>
    <path id="Path_71" data-name="Path 71" d="M577.434,267.2l.316,1.476c2.9-.622,5.855-1.187,8.786-1.68l-.251-1.488C583.333,266.006,580.354,266.575,577.434,267.2Z" transform="translate(-253.268 -132.119)" fill="#3f3d56"/>
    <path id="Path_72" data-name="Path 72" d="M750.6,289.192l-8.433-12.462-2.965,6.1c-.718-.32-1.431-.648-2.148-.958l-.6,1.385c.7.3,1.392.621,2.088.931l-2.951,6.075Z" transform="translate(-289.18 -134.668)" fill="#3f3d56"/>
  </g>
</svg>